<svg xmlns="http://www.w3.org/2000/svg" viewBox="0 0 1000 1000" xml:space="preserve"><switch><g><circle fill="#382B73" cx="500" cy="500" r="398"/><circle fill="#473080" cx="500" cy="500" r="344.3"/><path fill="#382B73" d="M767.9 470.3c-1.3-39.2-17.6-74.6-43.4-100.6l-.3-.3-.5-.5c-.9-.8-1.7-1.7-2.6-2.5l-.4-.4c-25.7-24-59.8-39.1-97.4-40.3h-.3c-1.5 0-3-.1-4.6-.1-1.5 0-3.1 0-4.6.1h-.3c-37.3 1.2-71.1 16-96.7 39.7-7.3-15.2-17.1-28.9-28.8-40.8l-.3-.3-.5-.5c-.9-.8-1.7-1.7-2.6-2.5l-.4-.4c-25.7-24-59.8-39.1-97.4-40.3h-.3c-1.5 0-3-.1-4.6-.1-1.5 0-3.1 0-4.6.1h-.3c-37.6 1.2-71.8 16.3-97.4 40.3l-.4.4c-.9.8-1.7 1.7-2.6 2.5l-.5.5-.3.3c-25.8 26-42.2 61.4-43.4 100.6-.1 1.6-.1 3.3-.1 4.9s0 3.3.1 4.9c1.3 39.2 17.6 74.6 43.4 100.6l.3.3.5.5c.9.8 1.7 1.7 2.6 2.5l.4.4c22.9 21.5 52.7 35.8 85.6 39.5-8.2 17.7-13 37.3-13.7 57.9-.1 1.6-.1 3.3-.1 4.9 0 1.6 0 3.3.1 4.9 1.2 37.6 16.3 71.8 40.3 97.4l.1.1c.7.8 1.5 1.6 2.3 2.4l1 1 .1.1c1.2 1.2 2.3 2.3 3.5 3.4 25.1 23.5 58.2 38.5 94.9 40.3.8 0 1.7.1 2.5.1h.7-.1 9.2c.8 0 1.7 0 2.5-.1 36.6-1.8 69.8-16.7 94.9-40.3 1.2-1.1 2.4-2.3 3.5-3.4l.4-.4.9-.9c.7-.7 1.4-1.4 2-2.1l.1-.1c24-25.7 39.1-59.8 40.3-97.4 0-1.3.1-2.5.1-3.8v-2c0-1.3 0-2.7-.1-4 0-1-.1-2-.1-3-.2-4.1-.6-8.1-1.1-12 27.2-5.7 51.8-18.9 71.3-37.2l.4-.4c.9-.8 1.7-1.7 2.6-2.5l.5-.5.3-.3c25.8-26 42.2-61.4 43.4-100.6.1-1.6.1-3.3.1-4.9 0-1.9 0-3.5-.1-5.1z"/><g><path fill="#27C1E6" d="M531.4 410c0 1.6 0 3.3-.1 4.9-2.6 80.4-68.6 144.8-149.6 144.8s-147-64.4-149.6-144.8c-.1-1.6-.1-3.3-.1-4.9 0-1.6 0-3.3.1-4.9 2.6-80.4 68.6-144.8 149.6-144.8s147 64.4 149.6 144.8c.1 1.6.1 3.3.1 4.9z"/><path fill="#136DA0" d="M529.3 412.1c0 1.6 0 3.2-.1 4.8-2.5 79.3-67.6 142.7-147.5 142.7s-144.9-63.5-147.5-142.7c-.1-1.6-.1-3.2-.1-4.8s0-3.2.1-4.8c2.5-79.3 67.6-142.7 147.5-142.7s144.9 63.5 147.5 142.7c0 1.6.1 3.2.1 4.8z"/><path fill="#009ADD" d="M531.4 410c0 1.6 0 3.3-.1 4.9H232.1c-.1-1.6-.1-3.3-.1-4.9 0-1.6 0-3.3.1-4.9h299.2c.1 1.6.1 3.3.1 4.9z"/><path fill="#1CAEE4" d="M531.3 405.1h-2.2c0 .7.1 1.5.1 2.2.1 1.6.1 3.2.1 4.8v2.8h2.1c.1-1.6.1-3.3.1-4.9-.1-1.6-.1-3.3-.2-4.9zM234.1 412.1c0-1.6 0-3.2.1-4.8 0-.7.1-1.5.1-2.2h-2.2c-.1 1.6-.1 3.3-.1 4.9 0 1.6 0 3.3.1 4.9h2.1c0-.9-.1-1.8-.1-2.8z"/><path fill="#009ADD" d="M381.7 260.3c1.6 0 3.3 0 4.9.1v299.2c-1.6.1-3.3.1-4.9.1-1.6 0-3.3 0-4.9-.1V260.4c1.6-.1 3.3-.1 4.9-.1z"/><path fill="#1CAEE4" d="M376.8 559.6h.7-.7zM381.7 264.6c1.6 0 3.3 0 4.9.1v-4.3c-1.6-.1-3.3-.1-4.9-.1-1.6 0-3.3 0-4.9.1v4.3c1.6-.1 3.3-.1 4.9-.1zM381.7 559.7h3.3-3.3zM385.9 559.6h.7-.7zM381.7 559.7h-3.3 3.3z"/><g><path fill="#009ADD" d="M487.6 515.8c-1.2 1.2-2.3 2.3-3.5 3.4L272.4 307.7c1.1-1.2 2.3-2.4 3.4-3.5 1.2-1.2 2.3-2.3 3.5-3.4L491 512.3c-1.1 1.2-2.3 2.4-3.4 3.5z"/></g><g><path fill="#1CAEE4" d="m483.6 518.8.4.4c1.2-1.1 2.4-2.3 3.5-3.4s2.3-2.3 3.4-3.5l-.5-.5c-2.1 2.4-4.4 4.8-6.8 7zM282 303.4l-2.6-2.6c-1.2 1.1-2.4 2.3-3.5 3.4-1.2 1.2-2.3 2.3-3.4 3.5l2.6 2.6c2.2-2.4 4.5-4.7 6.9-6.9z"/></g><g><path fill="#009ADD" d="M487.6 304.1c1.2 1.2 2.3 2.3 3.4 3.5L279.4 519.3c-1.2-1.1-2.4-2.3-3.5-3.4-1.2-1.2-2.3-2.3-3.4-3.5L484 300.7c1.2 1.1 2.4 2.3 3.6 3.4z"/></g><g><path fill="#1CAEE4" d="m488.4 310.2 2.6-2.6c-1.1-1.2-2.3-2.4-3.4-3.5-1.2-1.2-2.3-2.3-3.5-3.4l-2.6 2.6 6.9 6.9zM272.9 511.8l-.5.5c1.1 1.2 2.3 2.4 3.4 3.5s2.3 2.3 3.5 3.4l.4-.4c-2.3-2.2-4.6-4.6-6.8-7z"/></g><g><circle fill="#27C1E6" cx="381.7" cy="410" r="117.4"/></g><g><circle fill="#1CAEE4" cx="381.7" cy="410" r="105.9"/></g><g><path fill="#136DA0" d="m369.6 464.2 7.3-34.5 36.7-25.2 5.7-28.3-36.7 25.3 12-53.7h-28.2l-16.7 76.3-15.4 10.6-5.1 27.6 14.8-10.1-7.6 36.2H439l5-24.2z"/></g><g><path fill="#FFF" d="m369.6 451.9 7.3-34.5 36.7-25.2 5.7-28.3-36.7 25.3 12-53.6h-28.2l-16.7 76.2-15.4 10.7-5.1 27.5 14.8-10.1-7.6 36.2H439l5-24.2z"/></g><g><path fill="#D1D3D4" d="M439 467.9H338.1l-1.7 8.2H439l5-24.2h-1.7zM413.6 392.2l5.7-28.3-1.9 1.4-3.8 18.7-36.7 25.1-9 42.8h1.7l7.3-34.5zM382.6 389.2l12-53.6h-1.9l-12.2 55.1zM346 430.3l-15 10.3-1.8 9.4 14.8-10.1z"/></g><g><path fill="#F06EA9" d="M650.6 621.6c0 1.6 0 3.3-.1 4.9-1.2 37.6-16.3 71.8-40.3 97.4l-.1.1c-.7.7-1.3 1.4-2 2.1l-.9.9-.4.4c-1.2 1.2-2.3 2.3-3.5 3.4-25.1 23.5-58.2 38.5-94.9 40.3-.8 0-1.7.1-2.5.1H496c-.8 0-1.7 0-2.5-.1-36.6-1.8-69.8-16.7-94.9-40.3-1.2-1.1-2.4-2.2-3.5-3.4l-1-1c-.8-.8-1.5-1.6-2.3-2.4l-.1-.1c-24-25.7-39.1-59.8-40.3-97.4-.1-1.6-.1-3.3-.1-4.9s0-3.3.1-4.9c1.2-37.6 16.3-71.8 40.3-97.4l.1-.1c.8-.9 1.6-1.7 2.4-2.5 1.4-1.5 2.9-2.9 4.4-4.3 19.3-18.1 43.4-31.1 70.2-37 8.8-1.9 17.9-3.1 27.2-3.4H505.8c37.6 1.2 71.8 16.3 97.4 40.4 1.4 1.3 2.8 2.7 4.2 4.1l.5.5c.7.7 1.4 1.5 2.2 2.3l.1.1c23.4 25 38.3 58 40.2 94.5.1 1 .1 2 .1 3 .1 1.4.1 3 .1 4.7z"/><path fill="#A72973" d="M648.5 623.7c0 1.6 0 3.2-.1 4.8-2.5 79.3-67.6 142.7-147.5 142.7S356 707.7 353.4 628.5c-.1-1.6-.1-3.2-.1-4.8 0-1.6 0-3.2.1-4.8 2.5-79.3 67.6-142.7 147.5-142.7s144.9 63.5 147.5 142.7c0 1.6.1 3.2.1 4.8z"/><path fill="#E43D91" d="M650.6 621.6c0 1.6 0 3.3-.1 4.9H351.3c-.1-1.6-.1-3.3-.1-4.9 0-1.6 0-3.3.1-4.9h299.2c.1 1.6.1 3.2.1 4.9z"/><path fill="#EF5A9D" d="M650.5 616.6h-2.2c0 .7.1 1.5.1 2.2.1 1.6.1 3.2.1 4.8v2.8h2.1c.1-1.6.1-3.3.1-4.9-.1-1.6-.1-3.2-.2-4.9zM353.4 623.7c0-1.6 0-3.2.1-4.8 0-.7.1-1.5.1-2.2h-2.2c-.1 1.6-.1 3.3-.1 4.9 0 1.6 0 3.3.1 4.9h2.1c-.1-1-.1-1.9-.1-2.8z"/><path fill="#E43D91" d="M505.8 471.9v299.2H496V471.9H505.8z"/><path fill="#EF5A9D" d="M496 771.2h.7-.7zM505.8 471.9v4.3H496v-4.3H505.8zM500.9 771.3h3.3c-1.1-.1-2.2 0-3.3 0zM505.1 771.2h.7-.7zM500.9 771.3h-3.3c1.1-.1 2.2 0 3.3 0z"/><g><path fill="#E43D91" d="M606.8 727.4c-1.2 1.2-2.3 2.3-3.5 3.4L391.6 519.2c1.1-1.2 2.3-2.4 3.4-3.5 1.2-1.2 2.3-2.3 3.5-3.4l211.6 211.6c-1 1.2-2.2 2.3-3.3 3.5z"/></g><g><path fill="#EF5A9D" d="m602.8 730.4.4.4c1.2-1.1 2.4-2.3 3.5-3.4 1.2-1.2 2.3-2.3 3.4-3.5l-.5-.5c-2.1 2.4-4.4 4.7-6.8 7zM401.2 514.9l-2.6-2.6c-1.2 1.1-2.4 2.3-3.5 3.4-1.2 1.2-2.3 2.3-3.4 3.5l2.6 2.6c2.2-2.4 4.5-4.7 6.9-6.9z"/></g><g><path fill="#E43D91" d="m610.2 519.2-2.6 2.6-20.3 20.3-8.2 8.2-41.1 41.1-1.4 1.4-1.8 1.8-28.9 28.9-2.9 2.9-6.9 6.9-3.6 3.6-7.5 7.4-12.7 12.7-.5.5-4.5 4.5-3.5 3.5-65.2 65.2c-1.2-1.1-2.4-2.2-3.5-3.4l-1-1c-.8-.8-1.5-1.6-2.3-2.4l-.1-.1.5-.5 22.4-22.4 47.1-47.1 1.6-1.6 3.3-3.3 66.2-66.2 39.5-39.5 8.2-8.2 22.9-22.9 1 1c.7.6 1.3 1.2 1.9 1.9.2.2.4.4.6.5.2.2.4.5.7.7l.5.5.6.6c.5.6 1.1 1.1 1.6 1.7-.2.2-.2.2-.1.2z"/></g><g><path fill="#EF5A9D" d="m610.2 519.2-2.6 2.6c-.6-.6-1.1-1.2-1.7-1.8l-1.7-1.7c-.5-.5-1-.9-1.5-1.4l-.7-.7c-.4-.4-.9-.8-1.3-1.3l2.6-2.6 1 1c.7.6 1.3 1.2 1.9 1.9.2.2.4.4.6.5.2.2.4.5.7.7l.5.5.6.6c.5.5 1 1.1 1.6 1.7zM392.1 723.4l-.5.5c1.1 1.2 2.3 2.4 3.4 3.5 1.2 1.2 2.3 2.3 3.5 3.4l.4-.4c-2.3-2.3-4.6-4.6-6.8-7z"/></g><g><circle fill="#F06EA9" cx="500.9" cy="621.6" r="117.4"/></g><g><circle fill="#EF5A9D" cx="500.9" cy="621.6" r="105.9"/></g><g><path fill="#A72973" d="m555.3 628.2-50.6-82.4c-1.1-1.8-3.7-1.8-4.9 0l-50.6 82.4c-.8 1.3-.4 3.1 1 3.9l50.6 30.5c.9.5 2 .5 2.9 0l50.6-30.5c1.4-.8 1.8-2.6 1-3.9z"/><path fill="#A72973" d="m552.9 645.2-49.1 30.2c-.9.6-2.1.6-3 0l-49.1-30.2c-.9-.5-1.9.5-1.3 1.4l49.5 70.5c1.1 1.6 3.5 1.6 4.7 0l49.5-70.5c.6-.9-.4-1.9-1.2-1.4z"/></g><g><path fill="#FFF" d="m555.3 619.6-50.6-82.4c-1.1-1.8-3.7-1.8-4.9 0l-50.6 82.4c-.8 1.3-.4 3.1 1 3.9l50.6 30.5c.9.5 2 .5 2.9 0l50.6-30.5c1.4-.8 1.8-2.6 1-3.9z"/><path fill="#FFF" d="m552.9 636.6-49.1 30.2c-.9.6-2.1.6-3 0l-49.1-30.2c-.9-.5-1.9.5-1.3 1.4l49.5 70.5c1.1 1.6 3.5 1.6 4.7 0l49.5-70.5c.6-.8-.4-1.9-1.2-1.4z"/></g><g><path fill="#D1D3D4" d="M551.4 613.3 503.8 642c-.9.5-2 .5-2.9 0l-47.7-28.7-3.9 6.3c-.8 1.3-.4 3.1 1 3.9l50.6 30.5c.9.5 2 .5 2.9 0l50.6-30.5c1.4-.8 1.8-2.6 1-3.9l-4-6.3z"/><path fill="#D1D3D4" d="m552.9 636.6-10.9 6.7-37.4 53.2c-1.1 1.6-3.5 1.6-4.7 0l-37.4-53.2-10.9-6.7c-.9-.5-1.9.5-1.3 1.4l49.5 70.5c1.1 1.6 3.5 1.6 4.7 0L554 638c.7-.8-.3-1.9-1.1-1.4z"/></g></g><g><path fill="#A72973" d="M610.2 519.2c-.6-.6-1.1-1.2-1.7-1.8l-.6-.6-.5-.5c-.2-.2-.4-.5-.7-.7-.2-.2-.4-.4-.6-.5l-1.9-1.9-1-1c-25.6-24-59.8-39.2-97.4-40.4H496c-9.3.3-18.4 1.4-27.2 3.4.1 1.4.2 2.9.3 4.3.8 9.5 2.4 18.8 4.9 27.7 1 3.7 2.2 7.4 3.5 11 3.9 10.8 9 21.1 15.2 30.6l7.2-11.7c1.1-1.8 3.7-1.8 4.9 0l35.6 58.1c19.4 11.9 41.8 19.5 65.8 21.4h.6c2.2.2 4.5.3 6.7.4H623.4c2.4-.1 4.9-.2 7.3-.4 6-.5 11.9-1.3 17.6-2.5.7-.1 1.5-.3 2.2-.5-2-36.4-16.9-69.4-40.3-94.4z"/></g><g><path fill="#BCBEC0" d="M504.7 537.2c-1.1-1.8-3.7-1.8-4.9 0l-7.2 11.7c.9 1.4 1.8 2.7 2.8 4.1.2.3.4.5.6.8 3 4.3 6.3 8.5 9.8 12.4 2 2.3 4.1 4.6 6.3 6.8l.3.3.5.5c.8.8 1.7 1.7 2.6 2.5l.4.4c3.9 3.7 8.1 7.2 12.4 10.4 1 .8 2.1 1.5 3.1 2.3 1.7 1.2 3.3 2.3 5.1 3.4 1.3.8 2.5 1.6 3.8 2.4l-35.6-58z"/></g><g><path fill="#FFF335" d="M768 455.2c0 1.6 0 3.3-.1 4.9-2.6 80.4-68.6 144.8-149.6 144.8s-147-64.4-149.6-144.8c-.1-1.6-.1-3.3-.1-4.9 0-1.6 0-3.3.1-4.9 2.6-80.4 68.6-144.8 149.6-144.8s147 64.4 149.6 144.8c.1 1.6.1 3.2.1 4.9z"/><path fill="#E7AD27" d="M765.9 457.3c0 1.6 0 3.2-.1 4.8-2.5 79.3-67.6 142.7-147.5 142.7s-144.9-63.5-147.5-142.7c-.1-1.6-.1-3.2-.1-4.8 0-1.6 0-3.2.1-4.8 2.5-79.3 67.6-142.7 147.5-142.7s144.9 63.5 147.5 142.7c0 1.6.1 3.2.1 4.8z"/><path fill="#F7CB15" d="M768 455.2c0 1.6 0 3.3-.1 4.9H468.7c-.1-1.6-.1-3.3-.1-4.9 0-1.6 0-3.3.1-4.9h299.2c.1 1.6.1 3.2.1 4.9z"/><path fill="#FEDE3A" d="M767.9 450.3h-2.2c0 .7.1 1.5.1 2.2.1 1.6.1 3.2.1 4.8v2.8h2.1c.1-1.6.1-3.3.1-4.9-.1-1.7-.1-3.3-.2-4.9zM470.7 457.3c0-1.6 0-3.2.1-4.8 0-.7.1-1.5.1-2.2h-2.2c-.1 1.6-.1 3.3-.1 4.9 0 1.6 0 3.3.1 4.9h2.1c0-.9-.1-1.8-.1-2.8z"/><path fill="#F7CB15" d="M618.3 305.5c1.6 0 3.3 0 4.9.1v299.2c-1.6.1-3.3.1-4.9.1-1.6 0-3.3 0-4.9-.1V305.6c1.6-.1 3.3-.1 4.9-.1z"/><path fill="#FEDE3A" d="M613.4 604.8h.7-.7zM618.3 309.8c1.6 0 3.3 0 4.9.1v-4.3c-1.6-.1-3.3-.1-4.9-.1-1.6 0-3.3 0-4.9.1v4.3c1.6-.1 3.3-.1 4.9-.1zM618.3 604.9h3.3-3.3zM622.5 604.8h.7-.7zM618.3 604.9H615h3.3z"/><g><path fill="#F7CB15" d="M724.2 561c-1.2 1.2-2.3 2.3-3.5 3.4L509 352.9c1.1-1.2 2.3-2.4 3.4-3.5 1.2-1.2 2.3-2.3 3.5-3.4l211.6 211.6c-1 1.1-2.2 2.3-3.3 3.4z"/></g><g><path fill="#FEDE3A" d="m720.2 564 .4.4c1.2-1.1 2.4-2.3 3.5-3.4s2.3-2.3 3.4-3.5l-.5-.5c-2.1 2.4-4.4 4.8-6.8 7zM518.6 348.6 516 346c-1.2 1.1-2.4 2.3-3.5 3.4-1.2 1.2-2.3 2.3-3.4 3.5l2.6 2.6c2.2-2.4 4.5-4.7 6.9-6.9z"/></g><g><path fill="#F7CB15" d="M724.2 349.3c1.2 1.2 2.3 2.3 3.4 3.5L516 564.5c-1.2-1.1-2.4-2.3-3.5-3.4-1.2-1.2-2.3-2.3-3.4-3.5L720.7 346c1.1 1 2.3 2.2 3.5 3.3z"/></g><g><path fill="#FEDE3A" d="m725 355.4 2.6-2.6c-1.1-1.2-2.3-2.4-3.4-3.5-1.2-1.2-2.3-2.3-3.5-3.4l-2.6 2.6 6.9 6.9zM509.5 557l-.5.5c1.1 1.2 2.3 2.4 3.4 3.5 1.2 1.2 2.3 2.3 3.5 3.4l.4-.4c-2.3-2.2-4.6-4.6-6.8-7z"/></g><g><circle fill="#FFF335" cx="618.3" cy="455.2" r="117.4"/></g><g><circle fill="#FEDE3A" cx="618.3" cy="455.2" r="105.9"/></g><g><path fill="#E7AD27" d="M667.4 479.6c-1.5-3.7-3.6-7.1-6.3-10-1.6-1.8-3.4-3.3-5.4-4.7 1.1-1 2-2.1 2.9-3.3 2.1-2.8 3.7-6 4.7-9.5 1-3.4 1.5-7 1.5-10.7 0-5.7-1-10.8-3.1-15.2-2.1-4.5-5.2-8.3-9.1-11.2-3.8-2.8-8.3-4.9-13.5-6.2-1.9-.5-3.9-.9-6-1.1v-12.5c0-5-4-9-9-9s-9 4-9 9V407h-9.4v-11.8c0-5-4-9-9-9s-9 4-9 9V407h-11.8c-5 0-9 4-9 9s4 9 9 9h11.8v85h-11.8c-5 0-9 4-9 9s4 9 9 9h11.8v11.8c0 5 4 9 9 9s9-4 9-9V528h9.4v11.8c0 5 4 9 9 9s9-4 9-9v-11.9c4.2-.3 8.2-1 12-2.1 5-1.6 9.3-3.9 13-7 3.7-3.2 6.6-7.1 8.7-11.8 2-4.6 3-9.8 3-15.5 0-4.1-.8-8.2-2.4-11.9zm-52.3-54.7h7.8c8.7 0 15 1.5 19 4.4 2.1 1.6 4.9 4.5 4.9 11.7 0 8.3-3.5 11-4.6 11.8-3.7 2.8-9.7 4.2-17.8 4.2h-18.6v-32.2h9.3zm35.2 74.7c-.9 2.2-2.2 4-3.9 5.4-1.8 1.5-4 2.7-6.7 3.6-2.9.9-6.3 1.4-10 1.4h-23.9v-34.8h24.6c3.9 0 7.3.5 10 1.5s4.8 2.2 6.5 3.8c1.6 1.5 2.8 3.2 3.6 5 .8 2 1.2 4 1.2 6.1 0 3-.5 5.7-1.4 8z"/></g><g><path fill="#FFF" d="M667.4 467.3c-1.5-3.7-3.6-7.1-6.3-10-1.6-1.8-3.4-3.3-5.4-4.7 1.1-1 2-2.1 2.9-3.3 2.1-2.8 3.7-6 4.7-9.5 1-3.4 1.5-7 1.5-10.7 0-5.7-1-10.8-3.1-15.2-2.1-4.5-5.2-8.3-9.1-11.2-3.8-2.8-8.3-4.9-13.5-6.2-1.9-.5-3.9-.9-6-1.1v-12.5c0-5-4-9-9-9s-9 4-9 9v11.8h-9.4v-11.8c0-5-4-9-9-9s-9 4-9 9v11.8h-11.8c-5 0-9 4-9 9s4 9 9 9h11.8v85h-11.8c-5 0-9 4-9 9s4 9 9 9h11.8v11.8c0 5 4 9 9 9s9-4 9-9v-11.8h9.4v11.8c0 5 4 9 9 9s9-4 9-9v-11.9c4.2-.3 8.2-1 12-2.1 5-1.6 9.3-3.9 13-7 3.7-3.2 6.6-7.1 8.7-11.8 2-4.6 3-9.8 3-15.5 0-4.1-.8-8.1-2.4-11.9zm-52.3-54.6h7.8c8.7 0 15 1.5 19 4.4 2.1 1.6 4.9 4.5 4.9 11.7 0 8.3-3.5 11-4.6 11.8-3.7 2.8-9.7 4.2-17.8 4.2h-18.6v-32.2h9.3zm35.2 74.6c-.9 2.2-2.2 4-3.9 5.4-1.8 1.5-4 2.7-6.7 3.6-2.9.9-6.3 1.4-10 1.4h-23.9v-34.8h24.6c3.9 0 7.3.5 10 1.5s4.8 2.2 6.5 3.8c1.6 1.5 2.8 3.2 3.6 5 .8 2 1.2 4 1.2 6.1 0 3.1-.5 5.7-1.4 8z"/></g><g><path fill="#D1D3D4" d="M587.7 510.8h-11.8c-4.1 0-7.6-2.8-8.7-6.6-.2.8-.3 1.6-.3 2.5 0 5 4 9 9 9h11.8v-4.9zM658.7 444.4c-.9 1.2-1.9 2.3-2.9 3.3.9.6 1.8 1.3 2.6 2 .1-.1.2-.3.3-.4 2.1-2.8 3.7-6 4.7-9.5 1-3.4 1.5-7 1.5-10.7 0-.9 0-1.7-.1-2.6-.2 2.9-.6 5.7-1.4 8.4-1 3.5-2.6 6.7-4.7 9.5zM605.7 407.8v4.9h17.2c8.7 0 15 1.5 19 4.4 1.9 1.4 4.3 3.8 4.8 9.3.1-.8.1-1.6.1-2.5 0-7.2-2.8-10.2-4.9-11.7-3.9-2.9-10.3-4.4-19-4.4h-17.2zM650.5 468.3c-.8-1.9-2-3.5-3.6-5-1.7-1.5-3.8-2.8-6.5-3.8-2.8-1-6.1-1.5-10-1.5h-24.6v4.9h24.6c3.9 0 7.3.5 10 1.5s4.8 2.2 6.5 3.8c1.6 1.5 2.8 3.2 3.6 5 .5 1.3.9 2.6 1.1 4 .1-.9.2-1.8.2-2.7-.1-2.2-.5-4.2-1.3-6.2zM575.9 412.7h11.8v-4.9h-11.8c-4.1 0-7.6-2.8-8.7-6.6-.2.8-.3 1.6-.3 2.5-.1 4.9 4 9 9 9zM624.1 531.7c-5 0-9-4-9-9v4.9c0 5 4 9 9 9s9-4 9-9v-4.9c.1 4.9-4 9-9 9zM596.7 531.7c-5 0-9-4-9-9v4.9c0 5 4 9 9 9s9-4 9-9v-4.9c0 4.9-4 9-9 9zM666.7 489.8c-2 4.6-5 8.6-8.7 11.8-3.6 3.1-8 5.5-13 7-3.7 1.2-7.7 1.9-12 2.1v4.9c4.2-.3 8.2-1 12-2.1 5-1.6 9.3-3.9 13-7 3.7-3.2 6.6-7.1 8.7-11.8 2-4.6 3-9.8 3-15.5 0-.7 0-1.5-.1-2.2-.2 4.7-1.2 9-2.9 12.8zM615.1 510.8h-9.4v4.9h9.4z"/></g></g></g></g></switch></svg>